<?xml version="1.0" standalone="no"?>
<svg viewBox="0 0 200 200" xmlns="http://www.w3.org/2000/svg">
  <path fill="#FF0066" d="M20.9,-27.5C33.1,-29.1,53.2,-35.7,65.8,-32C78.4,-28.2,83.4,-14.1,74.5,-5.1C65.5,3.8,42.7,7.6,35.6,20.8C28.4,33.9,37,56.4,33.7,57.1C30.4,57.8,15.2,36.8,7.5,23.8C-0.2,10.8,-0.4,5.9,-7.3,7.3C-14.2,8.6,-27.8,16.3,-34.3,16.1C-40.8,16,-40.1,8,-44.6,-2.6C-49.1,-13.2,-58.7,-26.3,-59.2,-38.5C-59.6,-50.6,-50.8,-61.7,-39.4,-60.6C-28,-59.5,-14,-46.3,-4.8,-37.9C4.3,-29.5,8.6,-26,20.9,-27.5Z" transform="translate(100 100)" />
</svg>
